# xmcd
#
# Track frame offsets:
#	150
#	11052
#	24290
#	34930
#
# Disc length: 596 seconds
#
# Revision: 1
# Processed by: cddbd v1.5.1PL0 Copyright (c) Steve Scherf et al.
# Submitted via: CDex 1.50Beta5
#
DISCID=25025204
DTITLE=Oliver Neitzel - Oli。ュs Wilde Welt
DYEAR=2003
DGENRE=Unclassifiable
TTITLE0=Oli - Indikativ
TTITLE1=K将モlnig Der Tiere
TTITLE2=Das Gr将舅e Buch
TTITLE3=Spannungsmusik
EXTD=
EXTT0=
EXTT1=
EXTT2=
EXTT3=
PLAYORDER=
